<svg width="42" height="42" viewBox="0 0 42 42" fill="none" xmlns="http://www.w3.org/2000/svg">
<g id="icon">
<path id="Vector" fill-rule="evenodd" clip-rule="evenodd" d="M40.988 19.9938C40.9944 23.6325 39.9791 27.2033 38.0526 30.3178L34.7528 25.8051C35.543 23.965 35.9485 21.9892 35.9457 19.9938C35.9456 18.9797 35.8416 17.9681 35.6354 16.9742C35.6155 16.8797 35.5955 16.7879 35.5728 16.6962V16.6628C35.5471 16.5627 35.5244 16.4598 35.4959 16.3597C35.4674 16.2596 35.456 16.1957 35.4332 16.1178C35.382 15.9343 35.3307 15.748 35.271 15.5617L35.2197 15.3977L35.1941 15.317C35.1371 15.1502 35.0774 14.9834 35.0147 14.8138C34.972 14.697 34.9265 14.583 34.8809 14.469C34.8353 14.355 34.7869 14.241 34.7385 14.1298C34.6901 14.0185 34.6389 13.9045 34.5877 13.7933C34.4852 13.5709 34.377 13.3512 34.2602 13.1343C34.2147 13.0398 34.1634 12.9425 34.1093 12.8563C34.1093 12.8563 34.0951 12.8341 34.0894 12.8202C34.0837 12.8063 34.0894 12.8202 34.0894 12.8063C34.0353 12.7034 33.9755 12.6005 33.9129 12.4976C33.8502 12.3947 33.7905 12.2891 33.7221 12.1834C33.5855 11.961 33.4374 11.7385 33.2894 11.5217C32.4691 10.3373 31.4775 9.27527 30.3454 8.36858C30.2572 8.29629 30.1661 8.22677 30.075 8.15726C29.9839 8.08775 29.8586 7.99043 29.7475 7.91258C29.6365 7.83472 29.5482 7.76521 29.4486 7.69848C29.3489 7.63175 29.2635 7.5678 29.1639 7.50662C29.0557 7.43155 28.9447 7.36204 28.8308 7.29253L28.5973 7.14794L28.3667 7.01169C26.3876 5.87718 24.1758 5.18483 21.8902 4.98435C19.6046 4.78388 17.3019 5.08027 15.1475 5.85223C14.0086 6.26652 11.6228 7.65955 11.5288 7.7235L8.58203 3.70568L8.96354 3.461C9.96098 2.79745 11.0166 2.22149 12.1182 1.73987C14.9239 0.518106 17.9746 -0.0731843 21.0454 0.00958599C24.1163 0.0923563 27.129 0.847076 29.8614 2.21812C30.055 2.31544 30.2458 2.41553 30.4308 2.51841L30.7156 2.67968L30.9832 2.83539L31.248 2.9911C31.4359 3.1051 31.6209 3.22188 31.8174 3.34144L32.0309 3.48046L32.3384 3.689L32.6573 3.917L32.831 4.04212C32.9306 4.1172 33.0303 4.18949 33.1157 4.26735C33.3748 4.46476 33.6282 4.66774 33.8759 4.87905C34.1236 5.09037 34.3656 5.30447 34.6047 5.52413L34.9549 5.86057C35.0717 5.97457 35.1855 6.08857 35.2994 6.20535C35.5158 6.42501 35.7236 6.65023 35.9286 6.88101C36.0169 6.97833 36.1023 7.07843 36.1849 7.17575C36.2675 7.27306 36.3557 7.37594 36.4383 7.47882C36.5208 7.5817 36.5749 7.64287 36.6404 7.72628L36.8397 7.97931L37.0333 8.2379C37.1159 8.34633 37.1956 8.45477 37.2725 8.56599C37.3494 8.67721 37.4262 8.78843 37.5031 8.89965C37.5458 8.95804 37.5828 9.01643 37.6227 9.07482C37.6625 9.13321 37.7052 9.19161 37.7394 9.25278L37.9245 9.53083C38.0127 9.66707 38.0982 9.80888 38.1807 9.94512C38.2633 10.0814 38.3003 10.1481 38.3572 10.251C38.4142 10.3539 38.4768 10.4539 38.5338 10.5596L38.548 10.5846C38.5526 10.5954 38.5583 10.6056 38.5651 10.6152C38.5689 10.628 38.5747 10.6402 38.5822 10.6514C38.5887 10.6649 38.5963 10.6779 38.6049 10.6903L38.7644 10.9934L38.7872 11.0351C38.8469 11.1519 38.9067 11.2686 38.9637 11.3854C39.0206 11.5022 39.0861 11.644 39.1487 11.7719L39.3224 12.0805C39.3708 12.1862 39.4135 12.2891 39.4591 12.3947L39.5701 12.6728C39.6214 12.797 39.6698 12.9221 39.7153 13.0482C39.7311 13.0805 39.7444 13.114 39.7552 13.1483C39.8093 13.2901 39.8605 13.4263 39.9089 13.5764C40.0171 13.8851 40.1168 14.1993 40.2107 14.5163C40.2534 14.6636 40.2933 14.811 40.3331 14.9611C40.336 14.9721 40.336 14.9836 40.3331 14.9945C40.4186 15.3143 40.4926 15.6368 40.5638 15.9621C40.5979 16.1234 40.6292 16.2847 40.6577 16.4459C40.6577 16.4459 40.6577 16.4876 40.6577 16.5127C40.6833 16.6517 40.7061 16.7907 40.7289 16.9353C40.7517 17.0799 40.7744 17.255 40.8001 17.4108V17.4358C40.8228 17.6026 40.8399 17.7722 40.8599 17.939C40.8912 18.2505 40.9168 18.5619 40.9339 18.8789C40.9766 19.2514 40.988 19.6212 40.988 19.9938Z" fill="#23272E"></path>
<path id="Vector_2" d="M35.4819 33.6438C34.5505 34.6178 33.5213 35.4981 32.4099 36.2714C31.2984 37.0467 30.111 37.7126 28.8652 38.2594C24.8644 40.006 20.3958 40.4545 16.1149 39.5392C11.834 38.6238 7.96607 36.3927 5.07866 33.1733C2.19126 29.9538 0.436304 25.9154 0.0712614 21.6505C-0.293781 17.3856 0.750301 13.1187 3.05034 9.47572C3.14145 9.32835 3.23825 9.19767 3.33505 9.03918C3.43185 8.88069 3.52866 8.76113 3.61976 8.6082C3.97281 8.10771 4.35242 7.62576 4.75861 7.16234C4.83549 7.07059 4.91521 6.97883 5.00062 6.88429C5.03858 6.8398 5.07844 6.79532 5.1202 6.75083C5.20846 6.65073 5.29957 6.55341 5.40491 6.4561L5.51025 6.34766L8.45987 10.4127L8.49689 10.4628C8.42855 10.5434 8.36022 10.6268 8.29759 10.713C8.2272 10.7927 8.1616 10.8762 8.10114 10.9633C5.89121 13.8458 4.8101 17.4054 5.05322 20.9985C5.29635 24.5916 6.84766 27.9813 9.42677 30.5548C12.0059 33.1282 15.4426 34.7158 19.1157 35.0304C22.7889 35.345 26.4561 34.366 29.4546 32.2702L27.7463 29.9318L24.8166 25.9279C25.9878 25.107 26.8929 23.975 27.4246 22.6664C27.8687 21.5599 28.0294 20.3642 27.8928 19.1832C27.7561 18.0022 27.3263 16.8716 26.6405 15.8898C25.9547 14.9079 25.0338 14.1045 23.9578 13.5493C22.8818 12.9941 21.6832 12.7038 20.4662 12.7039C20.3608 12.7039 20.2498 12.7039 20.1445 12.7039H20.1302C18.6965 12.7677 17.3126 13.2372 16.1471 14.0552L13.2231 10.0485C14.3472 9.26147 15.5982 8.66374 16.9244 8.2801C18.0793 7.9441 19.2781 7.77364 20.4833 7.77405C20.8591 7.77405 21.2264 7.79073 21.5908 7.82132C24.7054 8.09409 27.6029 9.49459 29.7139 11.7476C31.8249 14.0006 32.9968 16.9432 32.9992 19.9971C32.9992 22.5373 32.187 25.0142 30.676 27.0818L32.464 29.5259L35.4819 33.6438Z" fill="#0059FF"></path>
<path id="Vector_3" fill-rule="evenodd" clip-rule="evenodd" d="M24.8237 25.9116C24.0285 26.4815 23.1254 26.8916 22.1666 27.118C21.2079 27.3443 20.2127 27.3826 19.2387 27.2304C18.2647 27.0783 17.3313 26.7388 16.4928 26.2317C15.6542 25.7245 14.927 25.0598 14.3535 24.2761C13.78 23.4924 13.3715 22.6052 13.1518 21.6662C12.9321 20.7271 12.9055 19.7547 13.0735 18.8055C13.2416 17.8563 13.6009 16.9492 14.1307 16.1367C14.6606 15.3241 15.3503 14.6224 16.1599 14.0723L24.8237 25.9116Z" fill="#23272E"></path>
</g>
</svg>